<?xml version="1.0"?>
<svg xmlns="http://www.w3.org/2000/svg" height="512px" viewBox="0 -41 436.90667 436" width="512px" class=""><g><path d="m389.226562 341.785156h-341.546874c-18.792969 0-34.027344-15.230468-34.027344-34.027344v-41.171874c0-18.792969 15.234375-34.027344 34.027344-34.027344h341.546874c18.792969 0 34.027344 15.234375 34.027344 34.027344v41.175781c0 18.792969-15.234375 34.023437-34.027344 34.023437zm0 0" fill="#f4aeab" data-original="#F4AEAB" class="active-path" style="fill:#5B42DB" data-old_color="#f4aeab"/><g fill="#5c128d"><path d="m389.226562 355.441406h-341.546874c-26.292969 0-47.679688-21.386718-47.679688-47.683594v-41.171874c0-26.292969 21.386719-47.679688 47.679688-47.679688h341.546874c26.292969 0 47.679688 21.386719 47.679688 47.679688v41.175781c0 26.292969-21.386719 47.679687-47.679688 47.679687zm-341.546874-109.226562c-11.234376 0-20.371094 9.132812-20.371094 20.371094v41.175781c0 11.238281 9.136718 20.371093 20.371094 20.371093h341.546874c11.234376 0 20.375-9.132812 20.375-20.375v-41.171874c0-11.238282-9.140624-20.375-20.375-20.375h-341.546874zm0 0" data-original="#5C128D" class="" style="fill:#333333" data-old_color="#5C128D"/><path d="m68.265625 232.558594c-7.539063 0-13.652344-6.105469-13.652344-13.652344v-204.800781c0-7.546875 6.113281-13.652344 13.652344-13.652344 7.542969 0 13.65625 6.105469 13.65625 13.652344v204.800781c0 7.546875-6.113281 13.652344-13.65625 13.652344zm0 0" data-original="#5C128D" class="" style="fill:#333333" data-old_color="#5C128D"/><path d="m368.640625 232.558594c-7.539063 0-13.652344-6.105469-13.652344-13.652344v-204.800781c0-7.546875 6.113281-13.652344 13.652344-13.652344s13.652344 6.105469 13.652344 13.652344v204.800781c0 7.546875-6.113281 13.652344-13.652344 13.652344zm0 0" data-original="#5C128D" class="" style="fill:#333333" data-old_color="#5C128D"/><path d="m95.574219 300.828125h-27.308594c-7.539063 0-13.652344-6.109375-13.652344-13.65625s6.113281-13.652344 13.652344-13.652344h27.308594c7.539062 0 13.652343 6.105469 13.652343 13.652344s-6.113281 13.65625-13.652343 13.65625zm0 0" data-original="#5C128D" class="" style="fill:#333333" data-old_color="#5C128D"/><path d="m368.640625 300.828125c-3.6875 0-7.101563-1.375-9.695313-3.960937-2.597656-2.597657-3.957031-6.148438-3.957031-9.695313s1.5-7.105469 3.957031-9.691406c3.820313-3.828125 9.96875-4.921875 14.882813-2.867188 1.773437.679688 3.273437 1.640625 4.503906 2.867188 2.457031 2.585937 3.960938 6.144531 3.960938 9.691406s-1.367188 7.09375-3.960938 9.695313c-1.363281 1.226562-2.867187 2.1875-4.503906 2.867187-1.640625.679687-3.414063 1.09375-5.1875 1.09375zm0 0" data-original="#5C128D" class="" style="fill:#333333" data-old_color="#5C128D"/><path d="m177.492188 300.828125h-27.304688c-7.539062 0-13.652344-6.109375-13.652344-13.65625s6.113282-13.652344 13.652344-13.652344h27.304688c7.542968 0 13.65625 6.105469 13.65625 13.652344s-6.113282 13.65625-13.65625 13.65625zm0 0" data-original="#5C128D" class="" style="fill:#333333" data-old_color="#5C128D"/><path d="m245.761719 171.121094c0 15.078125-12.226563 27.304687-27.308594 27.304687s-27.304687-12.226562-27.304687-27.304687c0-15.082032 12.222656-27.308594 27.304687-27.308594s27.308594 12.226562 27.308594 27.308594zm0 0" data-original="#5C128D" class="" style="fill:#333333" data-old_color="#5C128D"/><path d="m275.074219 160.851562c-5.320313 0-10.378907-3.117187-12.582031-8.332031-7.5-17.734375-24.785157-29.1875-44.039063-29.1875s-36.539063 11.453125-44.039063 29.1875c-2.929687 6.960938-10.921874 10.175781-17.894531 7.253907-6.9375-2.933594-10.191406-10.945313-7.253906-17.890626 11.78125-27.855468 38.941406-45.855468 69.1875-45.855468s57.40625 18 69.1875 45.851562c2.941406 6.945313-.316406 14.960938-7.253906 17.894532-1.738281.734374-3.539063 1.078124-5.3125 1.078124zm0 0" data-original="#5C128D" class="" style="fill:#333333" data-old_color="#5C128D"/><path d="m311.554688 142.066406c-5.167969 0-10.113282-2.945312-12.414063-7.945312-14.441406-31.441406-46.113281-51.746094-80.6875-51.746094s-66.246094 20.304688-80.6875 51.746094c-3.144531 6.851562-11.246094 9.878906-18.105469 6.691406-6.851562-3.148438-9.851562-11.253906-6.707031-18.105469 18.878906-41.09375 60.292969-67.640625 105.5-67.640625s86.621094 26.546875 105.5 67.640625c3.148437 6.855469.144531 14.960938-6.707031 18.105469-1.84375.855469-3.785156 1.253906-5.691406 1.253906zm0 0" data-original="#5C128D" class="" style="fill:#333333" data-old_color="#5C128D"/></g></g> </svg>
