<?xml version="1.0"?>
<svg xmlns="http://www.w3.org/2000/svg" height="512px" viewBox="0 0 64 64" width="512px" class=""><g><g id="Sofa-10" data-name="Sofa"><path d="m51 13h-38a6 6 0 0 0 -6 6v1a4 4 0 0 1 4 4v9h42v-9a4 4 0 0 1 4-4v-1a6 6 0 0 0 -6-6z" fill="#1e81ce" data-original="#1E81CE" class="" style="fill:#5B42DB" data-old_color="#1e81ce"/><path d="m13 24v9h-2v-9a3.992 3.992 0 0 0 -3.01-3.87c.02-.01.05-.01.07-.02a4.379 4.379 0 0 1 .94-.11 4 4 0 0 1 4 4z" fill="#1a6fb0" data-original="#1A6FB0" class="" style="fill:#5B42DB" data-old_color="#1a6fb0"/><path d="m11 31h42v2h-42z" fill="#1a6fb0" data-original="#1A6FB0" class="" style="fill:#5B42DB" data-old_color="#1a6fb0"/><path d="m48.12 27.88a3 3 0 0 1 -2.12 5.12h-8a3 3 0 0 1 0-6h8a2.993 2.993 0 0 1 2.12.88z" fill="#e6e7e8" data-original="#E6E7E8" class="active-path" data-old_color="#e6e7e8" style="fill:#FFFFFF"/><path d="m28.12 27.88a3 3 0 0 1 -2.12 5.12h-8a3 3 0 0 1 0-6h8a2.993 2.993 0 0 1 2.12.88z" fill="#e6e7e8" data-original="#E6E7E8" class="active-path" data-old_color="#e6e7e8" style="fill:#FFFFFF"/><path d="m15 45-.67 2-1.33 4h-4v-6z" fill="#8b5e3c" data-original="#8B5E3C" class="" style="fill:#5B42DB" data-old_color="#8b5e3c"/><path d="m55 45v6h-4l-1.33-4-.67-2z" fill="#8b5e3c" data-original="#8B5E3C" class="" style="fill:#5B42DB" data-old_color="#8b5e3c"/><path d="m57 41v3a1 1 0 0 1 -1 1h-48a1 1 0 0 1 -1-1v-3z" fill="#1e81ce" data-original="#1E81CE" class="" style="fill:#5B42DB" data-old_color="#1e81ce"/><path d="m57 37v4h-50v-4a4 4 0 0 1 4-4h42a4 4 0 0 1 4 4z" fill="#3d9ae2" data-original="#3D9AE2" class="" style="fill:#5B42DB" data-old_color="#3d9ae2"/><path d="m7 20a4 4 0 0 1 4 4v9a4 4 0 0 0 -4 4v-9a4 4 0 0 1 -.94-7.89 4.379 4.379 0 0 1 .94-.11z" fill="#5aaae7" data-original="#5AAAE7" class="" style="fill:#5B42DB" data-old_color="#5aaae7"/><path d="m60.89 23.06a4 4 0 0 1 -3.89 4.94v9a4 4 0 0 0 -4-4v-9a4 4 0 0 1 4-4 4.379 4.379 0 0 1 .94.11 3.96 3.96 0 0 1 2.95 2.95z" fill="#5aaae7" data-original="#5AAAE7" class="" style="fill:#5B42DB" data-old_color="#5aaae7"/><path d="m56.01 20.13a3.992 3.992 0 0 0 -3.01 3.87v9h-2v-9a4 4 0 0 1 4-4 4.379 4.379 0 0 1 .94.11c.02.01.05.01.07.02z" fill="#1a6fb0" data-original="#1A6FB0" class="" style="fill:#5B42DB" data-old_color="#1a6fb0"/><path d="m15 45-.67 2h-5.33v-2z" fill="#754c29" data-original="#754C29" class="" style="fill:#5B42DB" data-old_color="#754c29"/><path d="m55 45v2h-5.33l-.67-2z" fill="#754c29" data-original="#754C29" class="" style="fill:#5B42DB" data-old_color="#754c29"/><path d="m61.867 22.835a4.95 4.95 0 0 0 -3.7-3.7c-.055-.012-.11-.017-.165-.028v-.107a7.008 7.008 0 0 0 -7-7h-38.002a7.008 7.008 0 0 0 -7 7v.1c-.055.011-.11.016-.165.028a4.952 4.952 0 0 0 -3.7 3.7 5.034 5.034 0 0 0 .957 4.281 4.977 4.977 0 0 0 2.908 1.791v15.1a2 2 0 0 0 2 2v5a1 1 0 0 0 1 1h4a1 1 0 0 0 .949-.684l1.772-5.316h32.559l1.772 5.316a1 1 0 0 0 .948.684h4a1 1 0 0 0 1-1v-5a2 2 0 0 0 2-2v-15.1a4.974 4.974 0 0 0 2.911-1.784 5.03 5.03 0 0 0 .956-4.281zm-48.867-8.835h38a5.006 5.006 0 0 1 5 5v.106a4.985 4.985 0 0 0 -4 4.894v8h-2.556a3.959 3.959 0 0 0 .556-2 4 4 0 0 0 -4-4h-8a4 4 0 0 0 -4 4 3.959 3.959 0 0 0 .556 2h-5.112a3.959 3.959 0 0 0 .556-2 4 4 0 0 0 -4-4h-8a4 4 0 0 0 -4 4 3.959 3.959 0 0 0 .556 2h-2.556v-8a4.98 4.98 0 0 0 -4-4.893v-.107a5.006 5.006 0 0 1 5-5zm43 26h-48v-3a3 3 0 0 1 3-3h42a3 3 0 0 1 3 3zm-40-10a2 2 0 0 1 2-2h8a2 2 0 0 1 0 4h-8a2 2 0 0 1 -2-2zm20 0a2 2 0 0 1 2-2h8a2 2 0 0 1 0 4h-8a2 2 0 0 1 -2-2zm-31.347-4.131a3 3 0 1 1 5.347-1.869v8.1a4.954 4.954 0 0 0 -2 .925v-5.025a1 1 0 0 0 -1-1 2.99 2.99 0 0 1 -2.347-1.131zm7.626 24.131h-2.279v-4h3.612zm41.721 0h-2.279l-1.334-4h3.613zm-46-6v-2h48v2zm51.348-18.131a2.993 2.993 0 0 1 -2.348 1.131 1 1 0 0 0 -1 1v5.026a4.954 4.954 0 0 0 -2-.925v-8.101a3 3 0 1 1 5.348 1.869z" data-original="#000000" class="" style="fill:#000000"/><path d="m26 23h2v-1h1v-2h-1v-1h-2v1h-1v2h1z" data-original="#000000" class="" style="fill:#000000"/><path d="m16 23h2v-1h1v-2h-1v-1h-2v1h-1v2h1z" data-original="#000000" class="" style="fill:#000000"/><path d="m36 23h2v-1h1v-2h-1v-1h-2v1h-1v2h1z" data-original="#000000" class="" style="fill:#000000"/><path d="m46 23h2v-1h1v-2h-1v-1h-2v1h-1v2h1z" data-original="#000000" class="" style="fill:#000000"/><path d="m6 23h2v2h-2z" data-original="#000000" class="" style="fill:#000000"/><path d="m56 23h2v2h-2z" data-original="#000000" class="" style="fill:#000000"/></g></g> </svg>
