<?xml version="1.0"?>
<svg xmlns="http://www.w3.org/2000/svg" id="Layer_1" enable-background="new 0 0 512 512" height="512px" viewBox="0 0 512 512" width="512px" class=""><g><g><path d="m163.127 194.54h47.012v34.484h-47.012z" fill="#7cc0d2" data-original="#7CC0D2" class="active-path" style="fill:#5B42DB" data-old_color="#7cc0d2"/><path d="m27.707 263.724h34.793v194.918h-34.793z" fill="#317794" data-original="#317794" class="" style="fill:#5B42DB" data-old_color="#317794"/><path d="m449.82 263.724h34.793v194.918h-34.793z" fill="#317794" data-original="#317794" class="" style="fill:#5B42DB" data-old_color="#317794"/><path d="m280.28 263.72h169.54v153.54h-169.54z" fill="#7cc0d2" data-original="#7CC0D2" class="active-path" style="fill:#5B42DB" data-old_color="#7cc0d2"/><path d="m411.5 263.72h38.32v153.54h-38.32z" fill="#63aaba" data-original="#63AABA" class="" style="fill:#5B42DB" data-old_color="#63aaba"/><path d="m280.28 263.72h169.54v77.77h-169.54z" fill="#63aaba" data-original="#63AABA" class="" style="fill:#5B42DB" data-old_color="#63aaba"/><path d="m411.5 263.72h38.32v77.77h-38.32z" fill="#4a98a5" data-original="#4A98A5" class="" style="fill:#5B42DB" data-old_color="#4a98a5"/><path d="m504.5 246.37c0 9.59-7.77 17.35-17.35 17.35h-462.3c-4.79 0-9.13-1.94-12.27-5.08s-5.08-7.48-5.08-12.27c0-9.58 7.77-17.35 17.35-17.35h462.3c4.79 0 9.13 1.94 12.27 5.08s5.08 7.48 5.08 12.27z" fill="#b56c3a" data-original="#B56C3A" class="" style="fill:#5B42DB" data-old_color="#b56c3a"/><path d="m504.5 246.37c0 9.59-7.77 17.35-17.35 17.35h-37.33c9.58 0 17.35-7.76 17.35-17.35 0-4.79-1.94-9.13-5.08-12.27s-7.48-5.08-12.27-5.08h37.33c4.79 0 9.13 1.94 12.27 5.08s5.08 7.48 5.08 12.27z" fill="#a35623" data-original="#A35623" class="" style="fill:#5B42DB" data-old_color="#a35623"/><path d="m269.95 87.8v91.99c0 8.15-6.6 14.75-14.75 14.75h-136.29c-8.15 0-14.75-6.6-14.75-14.75v-91.99c0-8.15 6.6-14.76 14.75-14.76h136.29c8.15 0 14.75 6.61 14.75 14.76z" fill="#15cdff" data-original="#15CDFF" class="" data-old_color="#15cdff" style="fill:#5B42DB"/><path d="m269.95 87.8v91.99c0 8.15-6.6 14.75-14.75 14.75h-33c8.15 0 14.75-6.6 14.75-14.75v-91.99c0-8.15-6.6-14.76-14.75-14.76h33c8.15 0 14.75 6.61 14.75 14.76z" fill="#00b7e2" data-original="#00B7E2" class="" style="fill:#5B42DB" data-old_color="#00b7e2"/><path d="m269.95 158.87v20.92c0 8.15-6.6 14.75-14.75 14.75h-136.29c-8.15 0-14.75-6.6-14.75-14.75v-20.92z" fill="#dcf3ff" data-original="#DCF3FF" class="" style="fill:#5B42DB" data-old_color="#dcf3ff"/><path d="m269.95 158.87v20.92c0 8.15-6.6 14.75-14.75 14.75h-33c8.15 0 14.75-6.6 14.75-14.75v-20.92z" fill="#aedff4" data-original="#AEDFF4" class="" style="fill:#5B42DB" data-old_color="#aedff4"/><path d="m345.5 152.61h62.2v76.41h-62.2z" fill="#ff78af" data-original="#FF78AF" class="" style="fill:#5B42DB" data-old_color="#ff78af"/><path d="m379.7 152.61h28v76.41h-28z" fill="#ff3c83" data-original="#FF3C83" class="" style="fill:#5B42DB" data-old_color="#ff3c83"/></g><g><path d="m512 246.374c0-13.702-11.147-24.85-24.85-24.85h-20.15v-169.198c0-4.142-3.357-7.5-7.5-7.5s-7.5 3.358-7.5 7.5v169.198h-36.657v-68.912c0-4.142-3.357-7.5-7.5-7.5h-6.443v-21.676c0-4.142-3.357-7.5-7.5-7.5s-7.5 3.358-7.5 7.5v21.676h-19.32v-41.676c0-4.142-3.357-7.5-7.5-7.5s-7.5 3.358-7.5 7.5v41.676h-6.443c-4.143 0-7.5 3.358-7.5 7.5v68.912h-29.747c-4.143 0-7.5 3.358-7.5 7.5s3.357 7.5 7.5 7.5h178.76c5.431 0 9.85 4.418 9.85 9.85s-4.419 9.85-9.85 9.85h-462.3c-5.431 0-9.85-4.419-9.85-9.85s4.419-9.85 9.85-9.85h248.765c4.143 0 7.5-3.358 7.5-7.5s-3.357-7.5-7.5-7.5h-56.015v-20.1h37.602c12.27 0 22.252-9.982 22.252-22.252v-91.995c0-12.27-9.982-22.252-22.252-22.252h-136.293c-12.27 0-22.252 9.982-22.252 22.252v91.995c0 12.27 9.982 22.252 22.252 22.252h37.602v20.1h-96.511v-169.198c0-4.142-3.357-7.5-7.5-7.5s-7.5 3.358-7.5 7.5v169.198h-20.15c-13.702 0-24.85 11.147-24.85 24.85 0 12.043 8.612 22.113 20 24.375v188.926c0 4.142 3.357 7.5 7.5 7.5h35c4.143 0 7.5-3.358 7.5-7.5v-123.488c0-4.142-3.357-7.5-7.5-7.5s-7.5 3.358-7.5 7.5v115.987h-20v-180.95h20v29.872c0 4.142 3.357 7.5 7.5 7.5s7.5-3.358 7.5-7.5v-29.872h202.453v146.039c0 4.142 3.357 7.5 7.5 7.5h162.047v34.912c0 4.142 3.357 7.5 7.5 7.5h35c4.143 0 7.5-3.358 7.5-7.5v-38.696c0-4.142-3.357-7.5-7.5-7.5s-7.5 3.358-7.5 7.5v31.196h-20v-180.95h20v115.028c0 4.142 3.357 7.5 7.5 7.5s7.5-3.358 7.5-7.5v-115.505c11.388-2.262 20-12.331 20-24.374zm-158.864-24.85v-61.412h47.207v61.412zm-234.227-141.598h136.292c3.999 0 7.252 3.253 7.252 7.252v64.5h-150.796v-64.5c0-3.999 3.253-7.252 7.252-7.252zm-7.252 99.246v-12.495h150.796v12.495c0 3.999-3.253 7.252-7.252 7.252h-136.292c-3.999 0-7.252-3.253-7.252-7.252zm59.854 22.252h31.089v20.1h-31.089zm115.942 208.338v-60.038h154.547v60.038zm154.547-75.038h-154.547v-63.5h154.547z" data-original="#000000" class="" style="fill:#333333" data-old_color="#000000"/><path d="m356.312 311.359h17.479c4.143 0 7.5-3.358 7.5-7.5s-3.357-7.5-7.5-7.5h-17.479c-4.143 0-7.5 3.358-7.5 7.5s3.357 7.5 7.5 7.5z" data-original="#000000" class="" style="fill:#333333" data-old_color="#000000"/><path d="m373.466 373.09h-17.479c-4.143 0-7.5 3.358-7.5 7.5s3.357 7.5 7.5 7.5h17.479c4.143 0 7.5-3.358 7.5-7.5s-3.358-7.5-7.5-7.5z" data-original="#000000" class="" style="fill:#333333" data-old_color="#000000"/></g></g> </svg>
