<svg height="512pt" viewBox="-53 0 512 512" width="512pt" xmlns="http://www.w3.org/2000/svg"><path style="fill:#333;" d="m263.757812 0h-203.757812c-33.085938 0-60 26.914062-60 60v392c0 33.085938 26.914062 60 60 60h285.890625c33.082031 0 60-26.914062 60-60v-309.144531zm11.128907 67.898438 62.890625 63.210937h-42.890625c-11.027344 0-20-8.96875-20-20zm71 404.101562h-285.886719c-11.027344 0-20-8.972656-20-20v-392c0-11.027344 8.972656-20 20-20h174.890625v71.109375c0 33.085937 26.914063 60 60 60h71v280.890625c-.003906 11.027344-8.972656 20-20.003906 20zm-106.226563-230.570312 29.339844-16.429688v45l-10.589844 6.765625c-1.839844.980469-15.347656 7.882813-36.410156 10.921875v85.3125c0 23.746094-19.253906 43-43 43s-43-19.253906-43-43 19.253906-43 43-43c1.011719 0 2.007812.046875 3 .117188v-81h20c21.589844 0 36.492188-7.113282 37.660156-7.6875zm0 0"/></svg>