<svg id="Capa_1" enable-background="new 0 0 443.294 443.294" height="512" viewBox="0 0 443.294 443.294" width="512" xmlns="http://www.w3.org/2000/svg"><path style="fill:#fff;" d="m55.412 110.824h277.059v55.412h-277.059z"/><path style="fill:#fff;" d="m152.382 193.941h-83.117c-7.657 0-13.853 6.196-13.853 13.853v83.118c0 7.657 6.196 13.853 13.853 13.853h83.118c7.657 0 13.853-6.196 13.853-13.853v-83.118c-.001-7.657-6.197-13.853-13.854-13.853zm-13.853 83.118h-55.411v-55.412h55.412v55.412z"/><path style="fill:#fff;" id="path-1_5_" d="m193.941 193.941h138.529v27.706h-138.529z" transform="translate(7 7)"/><path style="fill:#fff;" id="path-1_4_" d="m193.941 249.353h138.529v27.706h-138.529z" transform="translate(7 9)"/><path style="fill:#fff;" d="m193.941 304.765h69.265v27.706h-69.265z"/><path style="fill:#fff;" d="m429.441 110.824h-13.853v235.5c0 7.643-6.209 13.853-13.853 13.853s-13.853-6.209-13.853-13.853v-277.059c0-7.657-6.196-13.853-13.853-13.853h-360.176c-7.657 0-13.853 6.196-13.853 13.853v277.059c0 22.917 18.642 41.559 41.559 41.559h360.176c22.917 0 41.559-18.642 41.559-41.559v-221.648c0-7.657-6.196-13.852-13.853-13.852zm-387.882 249.352c-7.643 0-13.853-6.209-13.853-13.853v-263.205h332.471v263.206 13.853h-318.618z"/></svg>