<svg height="512pt" viewBox="0 -31 512 512" width="512pt" xmlns="http://www.w3.org/2000/svg"><path style="fill:#fff;" d="m60.035156 60.046875h30.023438v30h-30.023438zm0 0"/><path style="fill:#fff;" d="m120.085938 60.046875h30.023437v30h-30.023437zm0 0"/><path style="fill:#fff;" d="m180.132812 60.046875h30.023438v30h-30.023438zm0 0"/><path style="fill:#fff;" d="m0 0v450.335938h512v-450.335938zm207.105469 330.265625h-177.105469v-180.167969h452v56.5625l-29.183594-1.691406c-67.382812-3.917969-133.539062 17.140625-186.261718 59.289062-23.515626 18.796876-43.515626 41.128907-59.449219 66.007813zm274.894531-300.265625v90.097656h-452v-90.097656zm-452 330.265625h160.457031c-9.046875 19.039063-15.910156 39.175781-20.378906 60.070313h-140.078125zm170.851562 60.070313c12.617188-52.242188 42.160157-98.851563 84.433594-132.648438 46.929688-37.515625 105.816406-56.253906 165.789063-52.773438l30.925781 1.796876v183.625zm0 0"/><path style="fill:#fff;" d="m120.085938 180.144531c-33.105469 0-60.039063 26.929688-60.039063 60.035157 0 33.105468 26.933594 60.035156 60.039063 60.035156 33.101562 0 60.035156-26.929688 60.035156-60.035156 0-33.105469-26.933594-60.035157-60.035156-60.035157zm0 90.070313c-16.5625 0-30.039063-13.472656-30.039063-30.035156s13.476563-30.035157 30.039063-30.035157c16.558593 0 30.035156 13.472657 30.035156 30.035157s-13.476563 30.035156-30.035156 30.035156zm0 0"/></svg>